<svg xmlns="http://www.w3.org/2000/svg" viewBox="0 0 56 47"><defs><style>.cls-1{fill:#bf9b9b;}.cls-2{fill:#ff6138;stroke:#000;stroke-miterlimit:10;}</style></defs><title>downicon</title><g id="Layer_2" data-name="Layer 2"><g id="Layer_1-2" data-name="Layer 1"><rect class="cls-1" x="1" y="1" width="54" height="45" rx="12.49"/><path d="M42.51,2A11.5,11.5,0,0,1,54,13.49v20A11.5,11.5,0,0,1,42.51,45h-29A11.5,11.5,0,0,1,2,33.51v-20A11.5,11.5,0,0,1,13.49,2h29m0-2h-29A13.49,13.49,0,0,0,0,13.49v20A13.49,13.49,0,0,0,13.49,47h29A13.49,13.49,0,0,0,56,33.51v-20A13.49,13.49,0,0,0,42.51,0Z"/><polygon class="cls-2" points="37.5 21.1 28 42 18.5 21.1 25.26 21.1 25.26 6 30.74 6 30.74 21.1 37.5 21.1"/></g></g></svg>