<svg xmlns="http://www.w3.org/2000/svg" viewBox="0 0 110.13 94"><defs><style>.cls-1{fill:#bf9b9b;}.cls-2{fill:#ff6138;stroke:#000;stroke-miterlimit:10;stroke-width:2px;}</style></defs><title>menuIcon</title><g id="Layer_2" data-name="Layer 2"><g id="Layer_1-2" data-name="Layer 1"><rect class="cls-1" x="1" y="1" width="108.13" height="92" rx="12.49"/><path d="M96.63,2a11.51,11.51,0,0,1,11.5,11.49v67A11.51,11.51,0,0,1,96.63,92H13.49A11.5,11.5,0,0,1,2,80.51v-67A11.5,11.5,0,0,1,13.49,2H96.63m0-2H13.49A13.49,13.49,0,0,0,0,13.49v67A13.49,13.49,0,0,0,13.49,94H96.63a13.5,13.5,0,0,0,13.5-13.49v-67A13.5,13.5,0,0,0,96.63,0Z"/><rect class="cls-2" x="20.42" y="14.46" width="69.29" height="15.67" rx="3.38"/><rect class="cls-2" x="20.42" y="39.77" width="69.29" height="15.67" rx="3.38"/><rect class="cls-2" x="20.42" y="63.87" width="69.29" height="15.67" rx="3.38"/></g></g></svg>