<svg xmlns="http://www.w3.org/2000/svg" viewBox="0 0 362 244.96"><defs><style>.cls-1{fill:none;}.cls-1,.cls-2{stroke:#000;stroke-miterlimit:10;}.cls-2,.cls-3{fill:#8c1837;}.cls-2{stroke-width:2px;}.cls-4{font-size:29px;font-family:NunitoSans-Regular, Nunito Sans;}.cls-5{letter-spacing:-0.01em;}.cls-6{letter-spacing:0em;}</style></defs><title>pmlogo</title><g id="Layer_2" data-name="Layer 2"><g id="Layer_1-2" data-name="Layer 1"><path class="cls-1" d="M37,1v.06Q34.77,1,32.5,1Z"/><path class="cls-2" d="M37,1.06Q34.77,1,32.5,1H1V206.52H37V135.94c60.05-1.41,108-31.06,108-67.44S97.05,2.47,37,1.06ZM37,109V28c44.74,0,81,18.13,81,40.5S81.74,109,37,109Z"/><path class="cls-1" d="M118,68.5C118,90.87,81.74,109,37,109V28C81.74,28,118,46.13,118,68.5Z"/><path class="cls-1" d="M118,68.5C118,90.87,81.74,109,37,109V28C81.74,28,118,46.13,118,68.5Z"/><path class="cls-2" d="M326.88,10,267.73,172H254.92L196,10.47l-.17,0V10H163V208h32.78V109.2L228.55,199l3.3,9h59l3.3-9,32.78-89.77V208H361V10ZM243.45,194.58l-.12-.29h.24Z"/><path class="cls-3" d="M243.14,196.61a7.32,7.32,0,0,0,2.55-2.27l-2.59-1.51a16,16,0,0,0-1.55,4.25l2.94.4c0-1.52.3-3.82-.79-5a2.21,2.21,0,0,0-3.77.7,1.51,1.51,0,0,0,1,1.84,1.52,1.52,0,0,0,1.84-1.05l.06-.15-.38.66a.74.74,0,0,1-1.12-.13l.05.23a5,5,0,0,0,0,.86c0,.7,0,1.39,0,2.09,0,1.66,2.6,2.07,2.95.39a13.38,13.38,0,0,1,1.25-3.53,1.5,1.5,0,0,0-2.59-1.51,4.14,4.14,0,0,1-1.47,1.19c-1.71.89-.2,3.48,1.51,2.59Z"/><path class="cls-3" d="M245.34,195.11a3.28,3.28,0,0,0-3.51,1.5,1.5,1.5,0,1,0,2.59,1.51l.08-.12c-.08.1-.08.11,0,0l0,0c-.08.07,0,.06.08,0l-.09,0,.14,0c-.15,0-.16,0,0,0s.09,0-.05,0a1.5,1.5,0,0,0,.8-2.89Z"/><text class="cls-4" transform="translate(1 237.44)"><tspan class="cls-5">Pr</tspan><tspan x="28.36" y="0">oje</tspan><tspan class="cls-6" x="66.47" y="0">c</tspan><tspan x="80.39" y="0">t Management Online</tspan></text><polygon class="cls-3" points="243.57 194.29 243.45 194.58 243.33 194.29 243.57 194.29"/></g></g></svg>